<svg width="32" height="32" viewBox="0 0 32 32" fill="none" xmlns="http://www.w3.org/2000/svg">
<path d="M9.67199 24.6587L10.6373 25.2227C12.2652 26.1724 14.1168 26.6708 16.0013 26.6667C18.111 26.6667 20.1733 26.0412 21.9274 24.8691C23.6815 23.697 25.0487 22.0311 25.856 20.082C26.6634 18.133 26.8746 15.9882 26.463 13.9191C26.0515 11.85 25.0356 9.94937 23.5438 8.45761C22.052 6.96585 20.1514 5.94995 18.0823 5.53837C16.0132 5.1268 13.8684 5.33803 11.9194 6.14537C9.97029 6.9527 8.30438 8.31987 7.13231 10.074C5.96025 11.8281 5.33466 13.8904 5.33466 16.0001C5.33076 17.8852 5.82969 19.7373 6.77999 21.3654L7.34266 22.3307L6.47199 25.5321L9.67199 24.6587ZM2.67332 29.3334L4.47599 22.7094C3.28793 20.6733 2.66386 18.3574 2.66799 16.0001C2.66799 8.63608 8.63732 2.66675 16.0013 2.66675C23.3653 2.66675 29.3347 8.63608 29.3347 16.0001C29.3347 23.3641 23.3653 29.3334 16.0013 29.3334C13.645 29.3375 11.3301 28.7139 9.29466 27.5267L2.67332 29.3334ZM11.1893 9.74408C11.3689 9.73164 11.548 9.72986 11.7267 9.73875C11.7987 9.74408 11.8707 9.75119 11.9427 9.76008C12.1547 9.78408 12.388 9.91341 12.4667 10.0921C12.864 10.9943 13.2498 11.901 13.624 12.8121C13.7067 13.0147 13.6573 13.2747 13.5 13.5281C13.42 13.6574 13.2947 13.8387 13.1493 14.0241C12.9987 14.2174 12.6747 14.5721 12.6747 14.5721C12.6747 14.5721 12.5427 14.7294 12.5933 14.9254C12.612 15.0001 12.6733 15.1081 12.7293 15.1987L12.808 15.3254C13.1493 15.8947 13.608 16.4721 14.168 17.0161C14.328 17.1707 14.484 17.3294 14.652 17.4774C15.276 18.0281 15.9827 18.4774 16.7453 18.8107L16.752 18.8134C16.8653 18.8627 16.9227 18.8894 17.088 18.9601C17.1707 18.9947 17.2555 19.0241 17.3427 19.0481C17.3747 19.057 17.4071 19.0619 17.44 19.0627C17.516 19.0656 17.5916 19.0499 17.6602 19.0169C17.7287 18.9839 17.7882 18.9346 17.8333 18.8734C18.7973 17.7054 18.8867 17.6294 18.8933 17.6294V17.6321C18.9603 17.5694 19.0399 17.5218 19.1269 17.4926C19.2139 17.4634 19.3061 17.4532 19.3973 17.4627C19.4791 17.4663 19.5578 17.4841 19.6333 17.5161C20.3413 17.8401 21.5 18.3454 21.5 18.3454L22.276 18.6934C22.4067 18.7561 22.5253 18.9041 22.5293 19.0467C22.5347 19.1361 22.5427 19.2801 22.512 19.5441C22.4693 19.8894 22.3653 20.3041 22.2613 20.5214C22.1892 20.6692 22.0948 20.805 21.9813 20.9241C21.8467 21.0652 21.6994 21.1938 21.5413 21.3081C21.4311 21.3899 21.3755 21.4299 21.3747 21.4281C21.2088 21.5333 21.0385 21.6312 20.864 21.7214C20.5205 21.9034 20.1415 22.008 19.7533 22.0281C19.5067 22.0414 19.26 22.0601 19.012 22.0467C19.0013 22.0467 18.2547 21.9307 18.2547 21.9307C16.359 21.432 14.6059 20.498 13.1347 19.2027C12.8333 18.9374 12.5533 18.6521 12.268 18.3681C11.084 17.1881 10.1867 15.9147 9.64132 14.7121C9.36466 14.1217 9.21477 13.4799 9.20132 12.8281C9.19631 12.0184 9.4614 11.2302 9.95466 10.5881C10.052 10.4627 10.144 10.3321 10.3027 10.1814C10.4707 10.0214 10.5787 9.93608 10.6947 9.87741C10.8494 9.80141 11.0174 9.75613 11.1893 9.74408Z" fill="white"/>
</svg>
